HIERARCHY
ROOT Hips
{
	OFFSET 0.000000 0.000000 0.000000
	CHANNELS 6 Xposition Yposition Zposition Zrotation Yrotation Xrotation
	JOINT LHipJoint
	{
		OFFSET 0.000000 0.000000 0.000000
		CHANNELS 3 Zrotation Yrotation Xrotation
		JOINT LeftUpLeg
		{
			OFFSET 0.076937 -0.101296 0.047373
			CHANNELS 3 Zrotation Yrotation Xrotation
			JOINT LeftLeg
			{
				OFFSET 0.138181 -0.379650 0.000000
				CHANNELS 3 Zrotation Yrotation Xrotation
				JOINT LeftFoot
				{
					OFFSET 0.144621 -0.397343 0.000000
					CHANNELS 3 Zrotation Yrotation Xrotation
					JOINT LeftToeBase
					{
						OFFSET 0.008898 -0.024446 0.131094
						CHANNELS 3 Zrotation Yrotation Xrotation
						End Site
						{
							OFFSET 0.000000 0.000000 0.000000
						}
					}
				}
			}
		}
	}
	JOINT RHipJoint
	{
		OFFSET 0.000000 0.000000 0.000000
		CHANNELS 3 Zrotation Yrotation Xrotation
		JOINT RightUpLeg
		{
			OFFSET -0.073689 -0.101296 0.047373
			CHANNELS 3 Zrotation Yrotation Xrotation
			JOINT RightLeg
			{
				OFFSET -0.143511 -0.394292 0.000000
				CHANNELS 3 Zrotation Yrotation Xrotation
				JOINT RightFoot
				{
					OFFSET -0.144963 -0.398282 0.000000
					CHANNELS 3 Zrotation Yrotation Xrotation
					JOINT RightToeBase
					{
						OFFSET -0.009298 -0.025546 0.133386
						CHANNELS 3 Zrotation Yrotation Xrotation
						End Site
						{
							OFFSET 0.000000 0.000000 0.000000
						}
					}
				}
			}
		}
	}
	JOINT LowerBack
	{
		OFFSET 0.000000 0.000000 0.000000
		CHANNELS 3 Zrotation Yrotation Xrotation
		JOINT Spine
		{
			OFFSET 0.001596 0.114897 -0.010915
			CHANNELS 3 Zrotation Yrotation Xrotation
			JOINT Spine1
			{
				OFFSET 0.003201 0.115645 -0.002413
				CHANNELS 3 Zrotation Yrotation Xrotation
				JOINT Neck
				{
					OFFSET 0.000000 0.000000 0.000000
					CHANNELS 3 Zrotation Yrotation Xrotation
					JOINT Neck1
					{
						OFFSET -0.003058 0.098565 0.009709
						CHANNELS 3 Zrotation Yrotation Xrotation
						JOINT Head
						{
							OFFSET 0.005874 0.099418 -0.006997
							CHANNELS 3 Zrotation Yrotation Xrotation
							End Site
							{
								OFFSET 0.000000 0.000000 0.000000
							}
						}
					}
				}
				JOINT LeftShoulder
				{
					OFFSET 0.000000 0.000000 0.000000
					CHANNELS 3 Zrotation Yrotation Xrotation
					JOINT LeftArm
					{
						OFFSET 0.189788 0.067783 -0.017566
						CHANNELS 3 Zrotation Yrotation Xrotation
						JOINT LeftForeArm
						{
							OFFSET 0.281260 -0.000000 -0.000000
							CHANNELS 3 Zrotation Yrotation Xrotation
							JOINT LeftHand
							{
								OFFSET 0.196626 -0.000000 -0.000000
								CHANNELS 3 Zrotation Yrotation Xrotation
								JOINT LeftFingerBase
								{
									OFFSET 0.000000 0.000000 0.000000
									CHANNELS 3 Zrotation Yrotation Xrotation
									JOINT LeftHandIndex1
									{
										OFFSET 0.040372 -0.000000 -0.000000
										CHANNELS 3 Zrotation Yrotation Xrotation
										End Site
										{
											OFFSET 0.000000 0.000000 0.000000
										}
									}
								}
								JOINT LThumb
								{
									OFFSET 0.000000 0.000000 0.000000
									CHANNELS 3 Zrotation Yrotation Xrotation
									End Site
									{
										OFFSET 0.000000 0.000000 0.000000
									}
								}
							}
						}
					}
				}
				JOINT RightShoulder
				{
					OFFSET 0.000000 0.000000 0.000000
					CHANNELS 3 Zrotation Yrotation Xrotation
					JOINT RightArm
					{
						OFFSET -0.177042 0.077557 -0.022840
						CHANNELS 3 Zrotation Yrotation Xrotation
						JOINT RightForeArm
						{
							OFFSET -0.295874 -0.000000 -0.000000
							CHANNELS 3 Zrotation Yrotation Xrotation
							JOINT RightHand
							{
								OFFSET -0.194403 -0.000000 -0.000000
								CHANNELS 3 Zrotation Yrotation Xrotation
								JOINT RightFingerBase
								{
									OFFSET 0.000000 0.000000 0.000000
									CHANNELS 3 Zrotation Yrotation Xrotation
									JOINT RightHandIndex1
									{
										OFFSET -0.035138 -0.000000 -0.000000
										CHANNELS 3 Zrotation Yrotation Xrotation
										End Site
										{
											OFFSET 0.000000 0.000000 0.000000
										}
									}
								}
								JOINT RThumb
								{
									OFFSET 0.000000 0.000000 0.000000
									CHANNELS 3 Zrotation Yrotation Xrotation
									End Site
									{
										OFFSET 0.000000 0.000000 0.000000
									}
								}
							}
						}
					}
				}
			}
		}
	}
}
MOTION
Frames: 4
Frame Time: 0.033333
18.533980 0.928742 -6.232759 -178.845680 43.946770 -172.894439 -4.844973 21.544654 -7.838437 -19.008100 -9.712913 -23.447682 9.305186 6.777998 47.152317 27.023338 0.204492 -2.953529 -5.315051 4.262499 -9.301859 1.768198 -32.844118 -3.252287 29.312319 11.950194 -24.244237 -10.597078 -1.081741 38.433564 -30.288487 11.083025 -11.775449 5.169903 -1.973720 -10.335451 1.319933 5.217762 42.255619 -2.277260 2.052610 3.833119 0.095701 3.207221 -12.637604 -4.252206 7.197950 -13.007014 6.891808 6.037440 -0.741621 -0.900018 0.374665 -15.021758 11.075304 7.769998 -1.269965 -77.976203 -22.414604 28.675954 1.095349 -73.457876 17.148925 14.198502 -29.909879 13.922968 -0.394074 11.327820 0.797677 -0.008913 -0.017055 0.014942 -0.000832 0.004683 -0.004714 -7.285149 -16.697944 2.483889 78.546834 12.032451 21.438140 2.803537 81.453661 15.608702 -13.297485 18.768584 11.454230 -2.115842 -12.411955 -0.140189 -0.019951 -0.069737 0.031871 -0.002731 0.004559 0.015748 
18.538500 0.939707 -6.232344 -178.887123 43.608571 -173.124534 -4.448575 21.226079 -6.467247 -18.605848 -9.151775 -22.099855 7.633876 6.701788 43.249386 27.335319 -0.243456 -1.928787 -5.200346 3.832764 -9.368476 1.321970 -32.392700 -3.182527 29.675320 10.563519 -22.192752 -10.255416 -1.245683 36.977684 -30.546094 11.042232 -12.875994 5.000110 -1.830807 -10.255546 1.100188 5.272151 39.850272 -1.824358 2.399883 5.028660 -0.273923 3.299678 -14.914923 -4.521696 8.158725 -12.744227 7.202173 7.124065 0.719038 -0.698041 0.774934 -14.238983 10.037364 8.955000 -0.819059 -77.471362 -21.015340 31.359768 0.731286 -69.331631 17.557652 13.389809 -29.047114 13.572619 -0.838840 11.633152 0.769063 -0.008302 -0.016287 0.014614 -0.000540 0.003287 -0.004940 -6.310249 -18.499690 1.803561 78.391157 10.964573 24.536993 2.846957 77.960628 16.037817 -12.742241 18.496253 11.010141 -1.711165 -12.727586 -0.159325 -0.020426 -0.066759 0.030694 -0.003255 0.004530 0.014969 
18.542325 0.950003 -6.232047 -178.914657 43.201934 -173.322550 -4.056512 21.061081 -5.235192 -18.342930 -8.469409 -20.788117 5.918247 6.640384 39.554318 27.384022 -0.836769 -1.300460 -5.040351 3.412868 -9.292519 0.933802 -31.923106 -3.015728 29.899898 9.390270 -20.435581 -9.790696 -1.325421 35.423834 -30.751491 10.899524 -13.482997 4.810659 -1.662008 -10.126510 0.986514 5.250310 37.332569 -1.339745 2.617276 6.145761 -0.726234 3.311610 -16.907841 -4.788622 9.106937 -12.413646 7.489707 8.184566 1.870232 -0.501473 1.205764 -13.644107 8.949973 9.779715 -0.292895 -76.756036 -19.635339 33.440671 0.408380 -65.417799 17.254615 12.614884 -27.867644 12.872878 -1.098023 11.906113 0.738425 -0.007764 -0.015618 0.014343 -0.000255 0.002284 -0.004985 -5.309188 -20.055677 0.980822 77.944617 10.076133 27.534509 2.490469 74.036439 16.447522 -12.059532 18.489875 10.520795 -1.178899 -12.978269 -0.181499 -0.020748 -0.064236 0.030040 -0.003655 0.004233 0.013819 
18.545227 0.960010 -6.231479 -179.051223 42.833131 -173.580771 -3.669391 20.781158 -3.841977 -18.009368 -8.110451 -19.592065 4.272288 6.263842 36.009362 27.268140 -1.371742 -0.316677 -4.891919 2.926268 -9.171076 0.496827 -31.322220 -3.133366 30.255764 8.034436 -18.409176 -9.356303 -1.356530 33.606227 -30.890479 10.900300 -13.900151 4.755546 -1.439373 -10.003779 0.827236 5.243427 34.923808 -0.374260 2.911543 7.235822 -1.547681 3.045837 -18.746379 -4.985001 9.419080 -12.086309 7.657062 8.655119 3.376609 -0.400415 1.440379 -12.852197 7.647263 10.545683 0.163742 -75.777218 -18.321954 35.223808 0.295361 -61.543018 16.826155 12.084295 -26.725480 12.386325 -1.281186 12.164059 0.707047 -0.006616 -0.015318 0.014024 0.000298 0.000896 -0.004928 -4.541719 -21.101826 0.126938 77.573004 9.329957 29.890199 2.081511 70.049771 16.569386 -11.150944 18.311774 9.673492 -0.722849 -13.238104 -0.191011 -0.021207 -0.061425 0.029361 -0.004200 0.003760 0.012344 
